<mxfile host="Electron" modified="2024-05-04T08:54:40.546Z" agent="Mozilla/5.0 (Windows NT 10.0; Win64; x64) AppleWebKit/537.36 (KHTML, like Gecko) draw.io/24.2.5 Chrome/120.0.6099.109 Electron/28.1.0 Safari/537.36" etag="7rXUzA86DDp-T_zF5TNI" version="24.2.5" type="device">
  <diagram name="第 1 页" id="dVdpCF9wNjlWeNjONU8Y">
    <mxGraphModel dx="1195" dy="697" grid="1" gridSize="10" guides="1" tooltips="1" connect="1" arrows="1" fold="1" page="1" pageScale="1" pageWidth="1169" pageHeight="1654" math="0" shadow="0">
      <root>
        <mxCell id="0" />
        <mxCell id="1" parent="0" />
        <mxCell id="6xLvO8n3xuleJa8Wf6iG-18" value="" style="rounded=0;whiteSpace=wrap;html=1;dashed=1;" vertex="1" parent="1">
          <mxGeometry x="510" y="510" width="350" height="270" as="geometry" />
        </mxCell>
        <mxCell id="6xLvO8n3xuleJa8Wf6iG-17" value="" style="edgeStyle=orthogonalEdgeStyle;rounded=0;orthogonalLoop=1;jettySize=auto;html=1;exitX=0.5;exitY=0;exitDx=0;exitDy=0;entryX=0.5;entryY=1;entryDx=0;entryDy=0;" edge="1" parent="1" source="6xLvO8n3xuleJa8Wf6iG-1" target="6xLvO8n3xuleJa8Wf6iG-2">
          <mxGeometry relative="1" as="geometry">
            <Array as="points">
              <mxPoint x="585" y="810" />
              <mxPoint x="400" y="810" />
            </Array>
          </mxGeometry>
        </mxCell>
        <mxCell id="6xLvO8n3xuleJa8Wf6iG-20" style="edgeStyle=orthogonalEdgeStyle;rounded=0;orthogonalLoop=1;jettySize=auto;html=1;exitX=0.5;exitY=0;exitDx=0;exitDy=0;entryX=0.5;entryY=1;entryDx=0;entryDy=0;" edge="1" parent="1" source="6xLvO8n3xuleJa8Wf6iG-1" target="6xLvO8n3xuleJa8Wf6iG-18">
          <mxGeometry relative="1" as="geometry" />
        </mxCell>
        <mxCell id="6xLvO8n3xuleJa8Wf6iG-1" value="&lt;font face=&quot;宋体&quot; style=&quot;font-size: 16px;&quot;&gt;前向激活输入&lt;/font&gt;&lt;font face=&quot;Times New Roman&quot; style=&quot;font-size: 16px;&quot;&gt;x&lt;/font&gt;" style="rounded=0;whiteSpace=wrap;html=1;fillColor=#dae8fc;strokeColor=#6c8ebf;" vertex="1" parent="1">
          <mxGeometry x="365" y="840" width="440" height="40" as="geometry" />
        </mxCell>
        <mxCell id="6xLvO8n3xuleJa8Wf6iG-2" value="&lt;font face=&quot;宋体&quot; style=&quot;font-size: 16px;&quot;&gt;预训练权重&lt;/font&gt;" style="rounded=0;whiteSpace=wrap;html=1;" vertex="1" parent="1">
          <mxGeometry x="320" y="560" width="160" height="200" as="geometry" />
        </mxCell>
        <mxCell id="6xLvO8n3xuleJa8Wf6iG-3" value="" style="shape=image;verticalLabelPosition=bottom;labelBackgroundColor=default;verticalAlign=top;aspect=fixed;imageAspect=0;image=data:image/png,iVBORw0KGgoAAAANSUhEUgAAAKwAAAA1CAYAAADcWABTAAAKNUlEQVR4Ae1cPWvjSheen6HWkOIN3CLurDKGFDFscQUprmGLEG6xmFssJkUwaYJJEUSKEN4iiBQLTrHgLRa0xYLTLMhFQCkueIuAUqRwsYWKFCq2eC4zkqxvW59xtDsLJvoYzZw588yZZ845swT8H9dAjTRAaiQrF5VrABywHAS10gAHbK2GiwvLAcsxUCsNcMDWari4sBywHAO10gAHbK2GiwvLAcsxUCsNcMDWari4sBywHAO10gAHbK2GiwvLAcsxUCsNcMDWariKCWs9apjcjqGcyZDPZKgPxepL/PrHDJNbFaMLux1laiYWzfqCAzarxmpb3oJ21kZ7R0SDEBAiYfRUTWfMLwO0d9rYFGg7BINv5bXDAVueLutRkzVBnwJ2S4ZeqcQGlB0K2B7U8gwsz9aqdMxeY+V3QwgUsMdatdLNx+jSdnYUGCW2xC1sicqsQ1XGVZst073PJZq9mI5bX/usneZ5uXacAzZG2b/uoznGbx3++hju5Rzjk0voz+Hn0Xvr/hLDz/PoC98T7URggO1/tXxPi19ywBbX4eutwZpD/6Qwj4DyxYD5vJy/WtMh2ttDaEtAS8uIreVlgAT++mMG9VqGfK0hr33PAFgLk6NNiDt0p5n829wfw5t7Myh7yWXderrXs9Cgr/huu+oNQ0icwrczKLu2xaG75nS/hqNrCb1jBeP7ObLYKvPrAG1BRO96gtl3HaMjEeJ2eyV/Nb8lAzIdWAE8jSCF+CuVp/OXjPGdiss3m+h+9FCSRb0ZAGtCPXLA12qElO4qtw3p/z7O8nOG8XEPEgX4H+EBc77Z72N0Hx4KA6P9NtrhdoRNNlmkk0nuGZpFOWWWtUwT5nwG7dMQHSJCnpow6TP6exqjRwR0TsfQH03Mv2uYfBlh+NcmA1hzu2Prb6OD/s1sJXCNmy4EIqB749/u6JC37Mmyir/GgTY1WAGE+avx8QAHV1RuA8quLYN0Uzlg/cOnYeCzFNIHv2L85XzX7u6UfSdBiXAoX1nf5ezC3iSIRyrmP30vans5x2iPYDj1dWA6BBGGsW4m41oCacnQf1qYTxX0WgSN/XHyzvtBQYfqeDe8Ozehvkvirz5ZnEs/aBdgTbmOe/zVhPHhAAcfXXzMcNkiIEIXo5TjH5Ysg4X1f6ph6AdsmtniLhPOd4EB81cduLagnTRB9kbJAxQoX4ebBMDujXxUyt8PahmbkO+dZ88zKG8FiKd6jKWloLRXsogFy+F/pcu4uNFAg3LWlGD1+GsTnb0u+p9dsPr7lP86J2ANjP70uJhw6qMBSbLkASyzFh0oVYUQk2St9HlWwALaMUFgFWO6jIlUmSp6zgoWiWLdy2jSd4eTGKDHdzgXYN1xpvSNUjphE513l9B+xLeR9WlOwNpKX2weTlY7oY2rToD3rnZ32NaieaKlVnDWzvvLm98nGF30ceBsKMUNb0Iu+kkIGu/Vgvw5O2CNDxJIQMd2HREuSqkFBWVMFCur/zUvJQjzV/NfBV0aot0aQgtvVfwDkPI6J2BdPuQM6qpZ+0NFz4kru4MfWbJCAtOOC0IPakkzM1T94nZ+K6PrbAgbrQP0ncQQmhzCfhcjqLcTTNzfv6nXxkUbwYvsgJ3fhAELaCcEER26gH0XnlTueLWd1cqAeq4m0iw/WF3ZFzx2icuLltVPbUrizx+gKwQhDch3dm3mVMHoLh96cwLWVpgLPsoxk/d8FiaHAsieZLs6HA4bUbarGfZXh9yKGZBAmYI3Pw2M/xFBiID2ewXaUz4FZpeiDMDaAIxY2AcFbarfgDUG8Oi4mVzLS8slGJk4sLp9XA3aOP+r3V9CuhgzkFDZ89O86gF7L0MkVECD7Y4XIA8r1dUKAGZR6M7Y96zUy2cd8hsBZOMASmGLmVWy7IDVz5sIhDitCQaCay397TtuI7+HwNQw3G6gQVc4x7DoZyIGt9EJSgFZKHDgcuhA/oBr3YdgxPFBgRRZAfx9WH6dG7AMVI61JMQRJtKWPTg2D3VnmkMjkgBLozGCgNUcN9JYygc0PGmDdZzTtZKyoYRiWQFrl/f0QT0nIoS3/gCNr6lHFf1tAY29PuTDLsTdPsaPFmzfrIiDdxLEQHDH/dbA6LBgaNZxXYoXwUCQdSejLQjovO9D2u1BLaD3SgFr89A+Joz3uDPNAWzCLNPPlwyGq9sCf5lMRMQwJ4cq0LTzaTbAmrcDNIUBJhZgPU0g7zVAWgNMVnB7FqgwQ1b0mQYqQs+KdyhQg5VUv2UHSayCvvTcgHV3g/YSH5PzaGkYbgV5KN0oLChBHO+t3I1lL5nCUXrXTmA0SrlJAOyfCmZO5Mu4n7BIl/y3E0rdEJ1IYQPSyRizFRufUsR8pZXkBizcHSmjBVGfIHNjhXhoALABnkO1Qy2wgErdWGxT4nPCr2VQEgC7oFf2pBb+oGFw+3RA+28F4+kMZkHrtJbultxofsCGQq2BUBtzYzUx+BZcfpbxXkr4mxW7sczPvcQQaMl6XVJdAmCdFSc80ZkP1r+JWlLz7/AqP2DdiIZjGbxQqx1OFWI4ajJgbTdW56rcMF54AFn7OwOMXZ9qnr+FvQrLActCm7sEni5sGhOIdIU79hvdlw/YJTw0yHs9GsGAFKIPVYxBcML4+HRoOV7w7Jjnwj9hp3xWSVcBFgBzBUpegsgSnWZtve7l8wMWwYwtO7/Rdhkl8tA43lu5G8sbItvChrOYvPcvc5UCsLCgn4qBpB9GFTg1KHIIMZqxZbuxloRTA4Clmx9vYJIjZSXCaEoP4MV4NEpsYnVVaQBLk0p1DFv+nFY78CKWfEZqtbyvq0QBC+slBNMltHmmrA6nhnjv4Irmbope6lzVumERIoKDT0XzAYoImhKwFLP0OIrQxdj9/wMeR+gKIobT4Ga2iDR1+7YAYG3FB/jeKh4aAiz9VkiIaVelSP2sCdIaQl/bmKcHLGBBO27Cv4FlEautwdJzV1Xp7jXUWyJg04RTg7yXVOzGilUw48wE4gulLUZlyAJYAM8aBlsCvEQXNzT7KyW1R7WU9KQAYIMZW4mx7UDLQd7ruW4ChSq/YUstPUN1rhfMbc0jagJgI4EUr257b+CGuOlzAyN66uCofmfbvF7luyoJsGnTxdz0s/ISevN1G6BpdG2BoLFXXjb8UllYHN+A/kWGFD6E+F1Bl4gY3OgwWHg2zFfsFE3hUMXcPbhIk1z+R893Xb5gauTSHr7Iy0KAdbPYE91YkS64vNe/xEUKvdyDuYrBNk04brBjHDT8SQFRNEEj2oEZLrcz+H3jDiTGJMEv9g9CH+pvkl9QCLDsf6nblzOc17Ggn0uQqKWIjuqanliY316i98Y+Ur0AQUzQgL1LSutbk/S/W7OFAPvLKYumwD3q3nGYmNCt9rBOl9gvp/HMHeKAzawy/sE6NcABu07t87Yza4ADNrPK+Afr1AAH7Dq1z9vOrAEO2Mwq4x+sUwMcsOvUPm87swY4YDOrjH+wTg38B2tQRTsEv5RHAAAAAElFTkSuQmCC;" vertex="1" parent="1">
          <mxGeometry x="367.5" y="695" width="85" height="26.21" as="geometry" />
        </mxCell>
        <mxCell id="6xLvO8n3xuleJa8Wf6iG-5" value="" style="rounded=0;whiteSpace=wrap;html=1;rotation=-90;fillColor=#ffe6cc;strokeColor=#d79b00;" vertex="1" parent="1">
          <mxGeometry x="480" y="640" width="200" height="40" as="geometry" />
        </mxCell>
        <mxCell id="6xLvO8n3xuleJa8Wf6iG-6" value="" style="rounded=0;whiteSpace=wrap;html=1;rotation=0;fillColor=#ffe6cc;strokeColor=#d79b00;" vertex="1" parent="1">
          <mxGeometry x="650" y="640" width="160" height="40" as="geometry" />
        </mxCell>
        <mxCell id="6xLvO8n3xuleJa8Wf6iG-7" value="" style="shape=curlyBracket;whiteSpace=wrap;html=1;rounded=1;flipH=1;labelPosition=right;verticalLabelPosition=middle;align=left;verticalAlign=middle;rotation=-90;horizontal=1;textDirection=vertical-lr;" vertex="1" parent="1">
          <mxGeometry x="572.5" y="533" width="15" height="40" as="geometry" />
        </mxCell>
        <mxCell id="6xLvO8n3xuleJa8Wf6iG-8" value="&lt;font style=&quot;font-size: 16px;&quot; face=&quot;Times New Roman&quot;&gt;r&lt;/font&gt;" style="text;html=1;align=center;verticalAlign=middle;whiteSpace=wrap;rounded=0;" vertex="1" parent="1">
          <mxGeometry x="560" y="520" width="40" height="20" as="geometry" />
        </mxCell>
        <mxCell id="6xLvO8n3xuleJa8Wf6iG-9" value="" style="shape=curlyBracket;whiteSpace=wrap;html=1;rounded=1;flipH=1;labelPosition=right;verticalLabelPosition=middle;align=left;verticalAlign=middle;rotation=0;horizontal=1;textDirection=vertical-lr;" vertex="1" parent="1">
          <mxGeometry x="810" y="640" width="15" height="40" as="geometry" />
        </mxCell>
        <mxCell id="6xLvO8n3xuleJa8Wf6iG-10" value="&lt;font style=&quot;font-size: 16px;&quot; face=&quot;Times New Roman&quot;&gt;r&lt;/font&gt;" style="text;html=1;align=center;verticalAlign=middle;whiteSpace=wrap;rounded=0;" vertex="1" parent="1">
          <mxGeometry x="820" y="650" width="40" height="20" as="geometry" />
        </mxCell>
        <mxCell id="6xLvO8n3xuleJa8Wf6iG-12" value="" style="shape=curlyBracket;whiteSpace=wrap;html=1;rounded=1;labelPosition=left;verticalLabelPosition=middle;align=right;verticalAlign=middle;" vertex="1" parent="1">
          <mxGeometry x="540" y="560" width="20" height="200" as="geometry" />
        </mxCell>
        <mxCell id="6xLvO8n3xuleJa8Wf6iG-13" value="&lt;font style=&quot;font-size: 16px;&quot; face=&quot;Times New Roman&quot;&gt;d&lt;/font&gt;" style="text;html=1;align=center;verticalAlign=middle;whiteSpace=wrap;rounded=0;" vertex="1" parent="1">
          <mxGeometry x="510" y="650" width="40" height="20" as="geometry" />
        </mxCell>
        <mxCell id="6xLvO8n3xuleJa8Wf6iG-14" value="" style="shape=curlyBracket;whiteSpace=wrap;html=1;rounded=1;labelPosition=left;verticalLabelPosition=middle;align=right;verticalAlign=middle;rotation=90;" vertex="1" parent="1">
          <mxGeometry x="720" y="550" width="20" height="160" as="geometry" />
        </mxCell>
        <mxCell id="6xLvO8n3xuleJa8Wf6iG-15" value="&lt;font style=&quot;font-size: 16px;&quot; face=&quot;Times New Roman&quot;&gt;k&lt;/font&gt;" style="text;html=1;align=center;verticalAlign=middle;whiteSpace=wrap;rounded=0;" vertex="1" parent="1">
          <mxGeometry x="710" y="600" width="40" height="20" as="geometry" />
        </mxCell>
        <mxCell id="6xLvO8n3xuleJa8Wf6iG-19" value="&lt;font style=&quot;font-size: 16px;&quot; face=&quot;宋体&quot;&gt;分解权重增量&lt;/font&gt;" style="text;html=1;align=center;verticalAlign=middle;whiteSpace=wrap;rounded=0;" vertex="1" parent="1">
          <mxGeometry x="665" y="730" width="110" height="30" as="geometry" />
        </mxCell>
        <mxCell id="6xLvO8n3xuleJa8Wf6iG-24" value="" style="shape=cross;whiteSpace=wrap;html=1;rotation=45;" vertex="1" parent="1">
          <mxGeometry x="610" y="645" width="30" height="30" as="geometry" />
        </mxCell>
        <mxCell id="6xLvO8n3xuleJa8Wf6iG-25" value="" style="shape=cross;whiteSpace=wrap;html=1;rotation=45;" vertex="1" parent="1">
          <mxGeometry x="365" y="790" width="30" height="30" as="geometry" />
        </mxCell>
        <mxCell id="6xLvO8n3xuleJa8Wf6iG-26" value="" style="shape=cross;whiteSpace=wrap;html=1;rotation=45;" vertex="1" parent="1">
          <mxGeometry x="690" y="790" width="30" height="30" as="geometry" />
        </mxCell>
        <mxCell id="6xLvO8n3xuleJa8Wf6iG-27" value="&lt;span style=&quot;font-size: 16px;&quot;&gt;&lt;font face=&quot;宋体&quot;&gt;输出&lt;/font&gt;&lt;font face=&quot;Times New Roman&quot;&gt;h&lt;/font&gt;&lt;/span&gt;" style="rounded=0;whiteSpace=wrap;html=1;fillColor=#dae8fc;strokeColor=#6c8ebf;" vertex="1" parent="1">
          <mxGeometry x="365" y="370" width="440" height="40" as="geometry" />
        </mxCell>
        <mxCell id="6xLvO8n3xuleJa8Wf6iG-35" style="edgeStyle=orthogonalEdgeStyle;rounded=0;orthogonalLoop=1;jettySize=auto;html=1;exitX=0.5;exitY=0;exitDx=0;exitDy=0;exitPerimeter=0;entryX=0.5;entryY=1;entryDx=0;entryDy=0;" edge="1" parent="1" source="6xLvO8n3xuleJa8Wf6iG-32" target="6xLvO8n3xuleJa8Wf6iG-27">
          <mxGeometry relative="1" as="geometry" />
        </mxCell>
        <mxCell id="6xLvO8n3xuleJa8Wf6iG-32" value="" style="shape=cross;whiteSpace=wrap;html=1;" vertex="1" parent="1">
          <mxGeometry x="570" y="445" width="30" height="30" as="geometry" />
        </mxCell>
        <mxCell id="6xLvO8n3xuleJa8Wf6iG-33" style="edgeStyle=orthogonalEdgeStyle;rounded=0;orthogonalLoop=1;jettySize=auto;html=1;exitX=0.5;exitY=0;exitDx=0;exitDy=0;entryX=0;entryY=0.5;entryDx=0;entryDy=0;entryPerimeter=0;" edge="1" parent="1" source="6xLvO8n3xuleJa8Wf6iG-2" target="6xLvO8n3xuleJa8Wf6iG-32">
          <mxGeometry relative="1" as="geometry" />
        </mxCell>
        <mxCell id="6xLvO8n3xuleJa8Wf6iG-34" style="edgeStyle=orthogonalEdgeStyle;rounded=0;orthogonalLoop=1;jettySize=auto;html=1;exitX=0.5;exitY=0;exitDx=0;exitDy=0;entryX=1;entryY=0.5;entryDx=0;entryDy=0;entryPerimeter=0;" edge="1" parent="1" source="6xLvO8n3xuleJa8Wf6iG-18" target="6xLvO8n3xuleJa8Wf6iG-32">
          <mxGeometry relative="1" as="geometry" />
        </mxCell>
      </root>
    </mxGraphModel>
  </diagram>
</mxfile>
